<?xml version="1.0" encoding="utf-8"?>
<svg width="175" height="44" viewBox="0 0 175 44" fill="none" xmlns="http://www.w3.org/2000/svg">
  <path d="M6.79499 1.68291C6.9507 0.713168 7.78752 0 8.76969 0H172.595C173.846 0 174.79 1.13475 174.562 2.36435L167.151 42.3644C166.975 43.3123 166.148 44 165.184 44H2.34677C1.11569 44 0.176884 42.8984 0.372061 41.6829L6.79499 1.68291Z" fill="#E11138"/>
  <path d="M 52.012 13.166 L 47.402 30.85 L 42.188 30.85 L 39.366 19.212 L 36.444 30.85 L 31.229 30.85 L 26.745 13.166 L 31.355 13.166 L 33.9 26.039 L 37.048 13.166 L 41.784 13.166 L 44.807 26.039 L 47.377 13.166 L 52.012 13.166 Z M 67.423 23.595 C 67.423 23.998 67.398 24.418 67.348 24.855 L 57.599 24.855 C 57.666 25.728 57.943 26.4 58.43 26.87 C 58.934 27.324 59.547 27.55 60.269 27.55 C 61.344 27.55 62.091 27.097 62.511 26.19 L 67.096 26.19 C 66.861 27.114 66.432 27.945 65.811 28.684 C 65.206 29.423 64.442 30.002 63.519 30.422 C 62.595 30.842 61.562 31.052 60.42 31.052 C 59.043 31.052 57.817 30.758 56.742 30.17 C 55.667 29.582 54.828 28.743 54.223 27.651 C 53.618 26.559 53.316 25.283 53.316 23.822 C 53.316 22.361 53.61 21.085 54.198 19.993 C 54.802 18.901 55.642 18.062 56.717 17.474 C 57.792 16.886 59.026 16.592 60.42 16.592 C 61.78 16.592 62.99 16.878 64.048 17.449 C 65.106 18.02 65.929 18.834 66.516 19.892 C 67.121 20.95 67.423 22.185 67.423 23.595 Z M 63.015 22.462 C 63.015 21.723 62.763 21.135 62.259 20.698 C 61.755 20.262 61.125 20.043 60.37 20.043 C 59.648 20.043 59.035 20.253 58.531 20.673 C 58.044 21.093 57.741 21.689 57.624 22.462 L 63.015 22.462 Z M 74.004 18.784 C 74.407 18.129 74.986 17.6 75.742 17.197 C 76.498 16.794 77.362 16.592 78.337 16.592 C 79.495 16.592 80.545 16.886 81.485 17.474 C 82.426 18.062 83.165 18.901 83.702 19.993 C 84.257 21.085 84.534 22.353 84.534 23.797 C 84.534 25.241 84.257 26.518 83.702 27.626 C 83.165 28.718 82.426 29.566 81.485 30.17 C 80.545 30.758 79.495 31.052 78.337 31.052 C 77.346 31.052 76.481 30.859 75.742 30.473 C 75.003 30.07 74.423 29.54 74.004 28.886 L 74.004 30.85 L 69.696 30.85 L 69.696 12.209 L 74.004 12.209 L 74.004 18.784 Z M 80.15 23.797 C 80.15 22.722 79.848 21.882 79.243 21.278 C 78.656 20.656 77.925 20.346 77.052 20.346 C 76.195 20.346 75.465 20.656 74.86 21.278 C 74.272 21.899 73.978 22.747 73.978 23.822 C 73.978 24.897 74.272 25.745 74.86 26.366 C 75.465 26.988 76.195 27.298 77.052 27.298 C 77.908 27.298 78.639 26.988 79.243 26.366 C 79.848 25.728 80.15 24.872 80.15 23.797 Z" fill="black"/>
  <path d="M 87.702 22.833 C 87.615 21.014 87.915 19.396 88.603 17.978 C 89.29 16.544 90.276 15.407 91.593 14.644 C 96.061 12.059 100.07 14.004 101.619 15.158 C 103.168 16.31 104.244 17.883 104.843 19.875 L 100.107 19.88 C 99.717 19.112 99.774 19.46 99.101 19.058 C 98.442 18.656 98.028 18.3 97.205 18.302 C 95.878 18.303 93.912 18.009 93.135 18.97 C 92.359 19.933 92.008 21.22 92.085 22.828 C 92.161 24.437 92.636 25.721 93.503 26.681 C 94.371 27.642 95.471 28.121 96.798 28.12 C 97.621 28.119 98.341 27.917 98.96 27.515 C 99.597 27.112 100.071 26.525 100.387 25.755 L 105.123 25.749 C 104.715 27.744 103.791 29.318 102.351 30.475 C 100.911 31.612 99.142 32.184 97.042 32.186 C 95.329 32.188 93.773 31.795 92.375 31.01 C 90.994 30.207 89.891 29.098 89.066 27.683 C 88.244 26.268 87.789 24.65 87.702 22.833 Z M 107.472 20.738 C 107.972 19.6 108.677 18.725 109.59 18.111 C 110.5 17.499 111.535 17.191 112.695 17.19 C 113.686 17.189 114.559 17.397 115.318 17.816 C 116.093 18.235 116.701 18.784 117.136 19.466 L 117.037 17.394 L 121.344 17.389 L 122.043 32.026 L 117.736 32.03 L 117.637 29.959 C 117.25 30.641 116.688 31.191 115.952 31.612 C 115.233 32.033 114.378 32.245 113.388 32.245 C 112.246 32.247 111.19 31.942 110.221 31.331 C 109.249 30.703 108.46 29.82 107.851 28.685 C 107.258 27.531 106.928 26.202 106.855 24.698 L 107.472 20.738 Z M 117.386 24.713 C 117.332 23.594 115.547 22.913 116.502 23.26 C 116.986 23.436 111.413 19.11 111.845 23.714 C 111.924 24.552 111.185 23.575 111.238 24.693 C 111.291 25.812 111.628 26.705 112.248 27.368 C 112.884 28.013 113.629 28.336 114.485 28.335 C 115.342 28.334 116.05 28.009 116.606 27.362 C 117.179 26.715 117.44 25.831 117.386 24.713 Z M 128.886 19.82 C 129.35 19.014 129.95 18.385 130.684 17.929 C 131.417 17.457 132.245 17.22 133.169 17.218 L 133.396 21.966 L 132.212 21.968 C 131.137 21.968 130.343 22.215 129.829 22.704 C 129.314 23.177 129.086 24.017 129.144 25.222 L 129.468 32.017 L 125.16 32.022 L 124.461 17.386 L 128.769 17.38 L 128.886 19.82 Z" fill="white" style="transform-box: fill-box; transform-origin: 57.0851% 43.6299%;"/>
</svg>